inDegrees=yes
name=ik_Xsens_quaternion
DataType=double
version=3
OpenSimVersion=4.4-2022-07-23-0e9fedc
endheader
time	pelvis_tilt	pelvis_list	pelvis_rotation	pelvis_tx	pelvis_ty	pelvis_tz	hip_flexion_r	hip_adduction_r	hip_rotation_r	knee_angle_r	knee_angle_r_beta	ankle_angle_r	subtalar_angle_r	mtp_angle_r	hip_flexion_l	hip_adduction_l	hip_rotation_l	knee_angle_l	knee_angle_l_beta	ankle_angle_l	subtalar_angle_l	mtp_angle_l	lumbar_extension	lumbar_bending	lumbar_rotation	arm_flex_r	arm_add_r	arm_rot_r	elbow_flex_r	pro_sup_r	wrist_flex_r	wrist_dev_r	arm_flex_l	arm_add_l	arm_rot_l	elbow_flex_l	pro_sup_l	wrist_flex_l	wrist_dev_l
14.16666666666667	-1.570537136473724e-12	-3.757382221987782e-12	-6.324672152874617e-12	0	0.93	0	-4.714560560051134e-35	5.38806921148701e-36	0	4.285314165210015e-15	7.479284161959085e-17	-8.082103817230515e-36	0	0	-4.714560560051134e-35	5.38806921148701e-36	0	4.285314165210015e-15	7.479284161959085e-17	-8.082103817230515e-36	0	0	-1.570537136473724e-12	-3.757382221987782e-12	-6.324672152874617e-12	0	3.367543257179381e-36	0	4.285314138459812e-15	4.285314190836747e-15	0	2.155227684594804e-35	-68.30813274874032	-22.18168323818565	81.72986395909848	5.231614973530637	44.99791534499457	0	2.155227684594804e-35
14.18333333333333	-4.184372577178417e-12	-7.097727925669899e-12	-1.828488850554712e-12	0	0.93	0	0	0	0	4.606121712794224e-15	8.039198959300549e-17	2.007212196099389e-44	0	0	0	0	0	4.606121712794224e-15	8.039198959300549e-17	2.007212196099389e-44	0	0	-4.184372577178414e-12	-7.097727925669903e-12	-1.828488850554711e-12	0	0	0	4.606121686040799e-15	4.606121738417733e-15	0	1.003606098049695e-44	-68.30246924520125	-22.18545131220175	81.73481206305229	5.244849770485894	44.99793036731625	0	1.003606098049695e-44
14.2	1.208020260983424e-24	8.463469425280806e-21	-6.11419952584259e-24	2.460349490170407e-23	0.93	-6.210194564869095e-19	2.831394162865166e-28	3.710811601532602e-17	0	4.166589806130486e-15	7.272071071799348e-17	1.850846493989351e-14	-9.173484758878204e-22	3.183101062432434e-16	2.36062575479061e-14	6.962968230690357e-26	1.312582517450892e-14	4.166589805134291e-15	7.272154965319731e-17	2.283925159328764e-14	5.226512175791726e-21	-3.532171389436059e-14	1.91083185717458e-24	-3.925350689872636e-14	2.410959053154576e-23	-1.416206876520174e-20	3.139384210906724e-15	-7.807811738154399e-14	4.166589869738525e-15	4.166589840483013e-15	-1.212736117898992e-14	8.988880012890892e-15	-68.30136617873312	-22.17839356166008	81.73987923471599	5.263399416515398	44.99794531424325	-4.21473485544329e-14	5.392336223898586e-15
14.21666666666667	2.006800769303845e-28	7.136193886221086e-27	4.51063260656294e-28	6.525199444924198e-30	0.93	-5.513700372737935e-30	-1.002664715529724e-38	-5.346425311077239e-27	0	4.332767422569806e-15	7.562105724765354e-17	4.12482596551066e-18	-2.68299338884156e-24	-2.753401718061038e-22	7.767084804898013e-21	2.188707102965569e-31	4.218419249126868e-20	4.332767422568956e-15	7.562025000534487e-17	1.190725476423458e-17	1.65657155770351e-24	-9.392124339926948e-22	4.638795786428349e-29	4.418530934404518e-20	5.203574101145776e-28	-2.233705043542164e-21	9.86614510676906e-18	4.494163004033158e-18	4.332767395269206e-15	4.332767448695824e-15	-5.289009553530232e-21	7.308628700931493e-20	-68.30412114812172	-22.16795947863163	81.73847932677512	5.26662242621997	44.99796009684901	2.400147874802032e-21	-3.132614194530286e-20
14.23333333333333	0	0	0	0	0.93	0	0	0	0	0	0	0	0	0	0	0	0	0	0	0	0	0	0	0	0	0	0	0	0	0	0	0	-68.3051678815691	-22.1530758633356	81.73495427909184	5.259477199331586	44.99797473652789	0	0
14.25	-3.478237891042138e-27	1.556441095014615e-26	-1.833312129992344e-27	3.796011502147916e-28	0.93	-3.914234654028324e-28	-7.627673399665081e-41	1.641950999041484e-29	-3.005747574557433e-28	8.22323322816738e-15	1.427104030486691e-16	-7.18233968438125e-16	3.469275613988642e-16	-7.702105321808925e-23	-7.028385267994269e-20	-2.846251224673003e-20	-2.18724034752285e-16	8.227569347657555e-15	1.567772311434355e-16	4.050304843085471e-16	6.163329981182623e-16	8.297484257461342e-26	-1.314263181400592e-15	8.4250347708914e-16	5.11552756135279e-16	-7.618574321019554e-16	1.125065222213153e-16	-2.448870975312474e-16	8.22756926416048e-15	8.227569344481003e-15	2.896980103757724e-26	5.414290818870192e-26	-68.30434487297045	-22.12637612190166	81.73352611058793	5.266588270243561	44.99798935872465	-4.514864317324945e-26	1.976313459018562e-25
14.26666666666667	-4.603006783587736e-27	-2.740637340134911e-27	-4.038061109484916e-27	-5.15650855847221e-29	0.93	6.219802604381634e-30	-9.32007566969744e-27	-1.077902750190161e-21	5.178880267084629e-21	4.416972784573275e-14	7.877693062498226e-16	-9.441856502881262e-16	-1.233095190740498e-15	4.100180433163347e-22	1.694218980251183e-21	2.171648614330433e-15	2.652881447302541e-15	3.799760750299693e-14	6.679045761470885e-16	-1.876723834670137e-15	-7.027099119345689e-16	-3.360550950275504e-25	3.158091604634601e-15	2.644867503264229e-16	2.083689608684716e-15	1.0696670627501e-16	-2.655080233856213e-17	-1.685525947511001e-16	4.581386865571634e-14	4.271109687314422e-14	2.133030871321016e-22	-4.516676759592349e-21	-68.31439239728496	-22.10320220889318	81.73374981919866	5.303408940513477	44.99800406610435	9.808026226535358e-22	3.622553258013657e-22
14.28333333333333	0	0	0	0	0.93	0	0	0	0	0	0	0	0	0	0	0	0	0	-1.61892394750995e-43	0	0	0	0	0	0	0	0	0	3.492186668510017e-39	1.503457133213835e-39	0	0	-68.32433166649224	-22.07478508818545	81.7326097180427	5.292602396526905	44.99801837308814	0	0
14.3	0	0	0	0	0.93	0	0	0	0	7.237686025183022e-39	0	0	0	0	0	0	0	7.237686025183022e-39	-1.61892394750995e-43	0	0	0	0	0	0	0	0	0	4.557383813751519e-39	0	0	0	-68.33270689828458	-22.0452494971699	81.73543609997992	5.262242107056105	44.99803247941651	0	0
14.31666666666667	1.283431998015317e-26	-3.226071050092111e-27	-7.868466058492645e-27	-3.48380266750852e-28	0.93	-2.190358489325714e-28	-3.123475292286084e-17	6.974559672650143e-18	-3.501852112428471e-16	1.278184737754265e-14	2.106147521837614e-16	3.264216928135888e-15	8.371030990023349e-16	-1.38464349802958e-22	-1.729403246698428e-15	6.313158131446528e-16	6.948056480260823e-15	8.479375350765505e-15	2.280234495667425e-16	-2.210516285031527e-15	-6.719090381539275e-18	2.498035473854144e-20	-6.417102577479402e-16	2.384638794405319e-15	-4.233461362960594e-15	3.856455980127728e-15	5.146638447061211e-15	3.590740665326522e-15	8.537617701980134e-15	8.52888441823005e-15	3.218447461997018e-21	-2.771170365850701e-19	-68.32256941878717	-22.04787568789724	81.76306691661739	5.264023486365949	44.99804656859894	-1.167293810996918e-20	2.744675905714344e-19
14.33333333333333	-1.605945117085304e-27	6.644410805360032e-28	5.975402373065707e-28	4.510457964331145e-30	0.93	2.85500830616275e-30	-8.788765792054478e-17	3.224159380104151e-18	3.365882252931861e-16	3.905090649436872e-14	6.7387898591e-16	-3.045573558268202e-17	2.178777687218271e-17	2.246809760934147e-20	-2.326969511622551e-16	-1.082547706346924e-17	-7.332581364838489e-17	3.902086771138331e-14	6.82058532434529e-16	7.799372874732334e-17	-2.664670620006916e-17	1.18771849487628e-22	-5.450927788620954e-17	-2.255235023103599e-16	-9.286479774715392e-17	-1.147640685091889e-16	2.080969486432457e-16	-1.755274212433635e-16	3.901675385262133e-14	3.901675343251727e-14	2.495691293707638e-20	4.903333300514574e-20	-68.27013423118444	-22.10859229123064	81.81901001652936	5.351704606023457	44.99806093148123	1.758924352034235e-20	-2.647293037209074e-19
14.35	0	-1.20692750337309e-33	0	0	0.93	0	0	-4.191794672119341e-37	0	1.277259059177999e-38	7.628165248148687e-42	5.38806921148701e-36	0	0	0	0	0	6.620773120234742e-39	6.707719888636974e-41	0	0	9.127744288431992e-56	0	-1.20692750337309e-33	0	-1.531381375197898e-49	0	0	0	2.630893169671392e-39	0	0	-68.20041079778706	-22.14471918412055	81.88954015753053	5.431242973930209	44.99807517731642	0	-3.702198079650986e-38
14.36666666666667	0	0	0	0	0.93	0	0	0	0	0	0	0	0	0	0	0	0	0	0	0	0	0	0	0	0	0	0	0	0	0	0	0	-68.16261853066773	-22.08697615231669	81.94942721590422	5.400219699748396	44.99808893484059	0	0
14.38333333333333	0	-5.603591979946491e-34	5.005826742865454e-34	0	0.93	0	0	0	0	0	0	0	0	0	0	0	0	0	0	0	0	0	2.181641852018305e-34	-1.256640860707201e-33	-1.72220371601225e-33	0	0	0	0	0	0	0	-68.163609315849	-22.03351702646826	81.99574215277434	5.334395655964792	44.99810233030187	0	0
